<svg xmlns="http://www.w3.org/2000/svg" viewBox="0 0 80 85">
<path d="M23.4,0C14.2-0.2,7.8,6.5,3.9,13.5s-4.7,13.1-3,24.4s12.7,25,21.8,33.4c5.4,5,12.6,7.3,17.5,8.4c4.9,0.6,7.2,5.3,7.2,5.3
	c0.2,0.3,0.4-1.9-1.1-4.4C46,80.3,45,79.5,44.1,79c-1.3-0.7-4.8-1.8-7.5-4.3c-2.4-2.2-3.9-4.9-3.9-7.5c0-2.6,0.3-5.7,2.8-6.7
	c2.2-0.9,0.2,2.6,1.6,4.3c1.4,1.7,3.7,1,3.7-1.8c0-2.2-0.9-2.7-2.2-4.6c-0.9-1.3-2.1-2.1-4.6-1c-1.8,0.8-2.9,2.1-3.6,4.8
	c-0.8,3.5-0.6,6.5,0.9,9.6c0.7,1.5,1.7,2.7,2.8,3.7c-0.9-0.4-1.8-0.7-2.6-1.1c-2.9-1.1-5-2.6-7-4.3c-1.1-1.1-2.5-2.5-3.4-4.3
	c-1.3-2.5-1.8-5.2-1-7.3c0.8-2.1,1.9-4.6,4.2-4.7c2.1-0.1-0.6,2.2,0,4c0.7,1.8,2.8,1.9,3.6-0.4c0.6-1.8,0.1-2.5-0.4-4.4
	c-0.3-1.3-1.1-2.4-3.5-2.2c-1.8,0.1-3,0.9-4.4,2.9c-1.7,2.7-2.4,5.2-2.1,8.2c0,0.4,0.1,0.7,0.2,1c-0.5-0.5-1-1-1.5-1.6
	c-1.8-1.8-3.8-4.7-5.8-7.9c0-0.1,0-0.1-0.1-0.2c-0.6-2.4-0.4-4.7,0.7-6.3c1.1-1.6,2.6-3.4,4.5-3c1.7,0.4-1,1.7-0.8,3.4
	c0.2,1.7,1.9,2.1,3.1,0.4c0.9-1.4,0.6-2.1,0.5-3.8c0-1.2-0.5-2.2-2.5-2.6c-1.5-0.3-2.7,0.1-4.2,1.5c-2,1.9-3,3.8-3.4,6.4
	c0,0.1,0,0.3,0,0.4C6.3,46,4.6,42.3,3.5,39c-0.1-1.8,0.4-3.5,1.4-4.6c1-1.1,2.4-2.3,3.9-1.7c1.3,0.5-1,1.2-1,2.5
	c-0.1,1.3,1.2,1.9,2.3,0.7c0.9-0.9,0.7-1.5,0.9-2.8c0.1-0.9-0.1-1.8-1.6-2.3c-1.1-0.4-2.1-0.3-3.5,0.6c-1.7,1.1-2.7,2.4-3.4,4.2
	c-0.1-0.5-0.2-0.9-0.3-1.3c-0.4-2.8-0.2-5.8,0.5-8.7c0.5-1.1,1.3-2,2.3-2.4c1.1-0.5,2.5-0.9,3.4,0c0.8,0.8-1.1,0.6-1.6,1.5
	c-0.5,0.9,0.3,1.8,1.5,1.3c0.9-0.4,1-0.9,1.6-1.8c0.4-0.6,0.5-1.3-0.4-2.2c-0.7-0.7-1.5-0.9-2.8-0.7c-1.3,0.2-2.3,0.6-3.2,1.4
	c1.2-3.9,3.1-7.7,5.3-11.3c4.4-7.3,11.4-8.1,19.3-6.8s13.6,9,12.6,15.3c-1,6.3-2.4,6.7-9,12.7s-11.8-0.3-13.7-3s-1.5-7.9,0.4-10.9
	c1.8-3,4-3.4,6.4-3.2s3.9,2.1,4.5,5s4.8,1.8,1.1-3.5c-2.1-3-4.8-4-8.8-3.2s-6.5,4.8-8.1,10.8S20.1,37,26.9,38.3
	c6.8,1.2,14.1-5.3,17.8-11.7S44.2,9.9,44.2,9.9C41,3.8,32.6,0.3,23.4,0z"/>
<path d="M59.8,23.5c6.5-1.3,11.7,2.8,15.3,7.2s4.8,8.6,4.9,16.8c0.1,8.1-6,19.1-11.5,26c-3.2,4.1-8,6.6-11.3,8
	c-2.7,0.9-3.7,2.3-3.7,2.3s-0.2-1.6,0.9-2.4c0.9-0.6,3.2-1.8,4.8-3.9c1.4-1.8,2.2-3.9,1.8-5.7c-0.3-1.8-0.9-4-2.7-4.4
	c-1.6-0.4,0.2,1.8-0.6,3.2s-2.5,1.1-2.8-0.9c-0.3-1.5,0.3-2,1-3.5c0.5-1,1.3-1.8,3.1-1.3c1.4,0.4,2.3,1.1,3.1,3
	c1,2.4,1.2,4.5,0.5,6.9c-0.3,1.2-0.9,2.1-1.5,2.9c0.6-0.4,1.2-0.7,1.7-1.1c1.9-1.1,3.2-2.4,4.4-3.9c0.7-0.9,1.5-2,1.9-3.4
	c0.6-1.9,0.6-3.9-0.2-5.3c-0.8-1.4-1.9-3-3.5-2.8c-1.5,0.2,0.7,1.5,0.4,2.8c-0.3,1.4-1.7,1.7-2.6,0.1c-0.7-1.2-0.3-1.7-0.2-3.1
	c0.1-1,0.5-1.8,2.2-2c1.3-0.1,2.2,0.2,3.4,1.5c1.5,1.7,2.3,3.4,2.4,5.5c0,0.3,0,0.5,0,0.7c0.3-0.4,0.6-0.8,0.9-1.3
	c1-1.5,2.1-3.7,3.2-6.3c0-0.1,0-0.1,0-0.2c0.1-1.7-0.3-3.4-1.2-4.3c-0.9-1-2.2-2.1-3.5-1.6c-1.2,0.5,0.9,1.1,0.9,2.3
	c0.1,1.2-1.1,1.7-2.1,0.6c-0.8-0.9-0.6-1.4-0.8-2.6c-0.1-0.8,0.1-1.6,1.4-2.1c1-0.4,1.9-0.3,3.2,0.6c1.6,1.1,2.6,2.3,3.1,4.1
	c0,0.1,0.1,0.2,0.1,0.3c1-2.7,1.7-5.6,2.2-8c-0.2-1.3-0.7-2.4-1.5-3.1c-0.9-0.6-2-1.3-2.9-0.8c-0.8,0.5,0.8,0.7,1,1.6
	c0.2,0.9-0.6,1.5-1.6,0.8c-0.7-0.6-0.7-1-1-1.9c-0.2-0.6-0.2-1.3,0.8-1.8c0.7-0.4,1.4-0.5,2.5,0c1.3,0.6,2.2,1.4,2.9,2.6
	c0-0.3,0-0.7,0-1c0-2-0.5-4.1-1.3-6.1c-0.5-0.7-1.2-1.3-1.9-1.4c-0.8-0.2-1.9-0.4-2.4,0.4c-0.5,0.7,0.8,0.3,1.3,0.9
	c0.4,0.6,0,1.3-0.9,1.1c-0.7-0.2-0.8-0.5-1.3-1.1c-0.3-0.4-0.5-0.9,0-1.6c0.4-0.5,0.9-0.8,1.9-0.8c0.9,0,1.7,0.2,2.4,0.6
	c-1.3-2.6-3.1-5-5.1-7.3c-3.9-4.6-8.9-4.4-14.4-2.5c-5.4,1.9-8.5,7.9-7.1,12.2c1.4,4.3,2.5,4.5,7.8,7.9c5.4,3.4,8.3-1.6,9.3-3.8
	s0.1-5.7-1.5-7.6s-3.2-1.9-4.9-1.5s-2.5,2-2.6,4c0,2.1-3.1,1.8-1.2-2.3c1.1-2.4,2.9-3.4,5.8-3.3c2.9,0.1,5.1,2.6,6.9,6.6
	s-3.1,9.7-7.8,11.4s-10.5-2-13.9-6.1c-3.4-4.1-1.6-11.8-1.6-11.8C47.9,28.3,53.3,24.8,59.8,23.5z"/>
</svg>
